<?xml version="1.0"?>
<svg xmlns="http://www.w3.org/2000/svg" xmlns:xlink="http://www.w3.org/1999/xlink" version="1.1" id="Capa_1" x="0px"
     y="0px" viewBox="0 0 275.07 275.07" style="enable-background:new 0 0 275.07 275.07;" xml:space="preserve"
     width="512px" height="512px"><g><g>
	<path d="M137.536,44.17c-7.221,0-13.096,5.875-13.096,13.096c0,7.222,5.875,13.098,13.096,13.098   c7.221,0,13.096-5.876,13.096-13.098C150.632,50.045,144.757,44.17,137.536,44.17z"
          fill="#EC755B"/>
	<path d="M137.535,0C94.098,0,58.759,39.148,58.759,87.268v100.535c0,48.119,35.339,87.268,78.776,87.268   s78.776-39.148,78.776-87.268V87.268C216.312,39.148,180.973,0,137.535,0z M201.312,187.803c0,39.849-28.61,72.268-63.776,72.268   c-35.167,0-63.776-32.419-63.776-72.268V87.268c0-39.849,28.61-72.268,63.776-72.268c35.166,0,63.776,32.419,63.776,72.268V187.803   z"
          fill="#EC755B"/>
</g></g> </svg>
