<svg height="512pt" viewBox="-16 0 512 512" width="512pt" xmlns="http://www.w3.org/2000/svg">
    <path d="m368.46875 512h-161.710938c-44.777343 0-86.875-17.4375-118.535156-49.097656l-72.269531-72.269532c-15.234375-15.230468-15.953125-32.84375-15.953125-38.957031 0-49.335937 60.585938-72.929687 93.644531-37.355469l37.335938 40.210938c10.582031 11.394531 29.6875 3.890625 29.6875-11.660156v-291.722656c0-28.246094 22.855469-51.148438 51.148437-51.148438 28.207032 0 51.152344 22.945312 51.152344 51.148438v98.03125c6.445312-2.941407 13.609375-4.578126 21.148438-4.578126 18.554687 0 34.835937 9.929688 43.800781 24.757813 8.148437-5.488281 17.957031-8.695313 28.5-8.695313 18.554687 0 34.835937 9.933594 43.800781 24.761719 8.148438-5.488281 17.957031-8.691406 28.5-8.691406 28.246094 0 51.148438 22.851563 51.148438 51.148437v172.71875c0 61.523438-49.777344 111.398438-111.398438 111.398438zm-338.46875-160.324219v.441407c0 6.441406 2.613281 12.746093 7.164062 17.300781l72.269532 72.269531c25.996094 25.996094 60.558594 40.3125 97.324218 40.3125h161.710938c44.953125 0 81.398438-36.371094 81.398438-81.398438v-172.71875c0-11.664062-9.488282-21.148437-21.148438-21.148437-11.664062 0-21.152344 9.488281-21.152344 21.148437v28.117188c0 8.285156-6.714844 15-15 15-8.28125 0-15-6.714844-15-15v-44.183594c0-11.664062-9.488281-21.148437-21.148437-21.148437-11.660157 0-21.148438 9.488281-21.148438 21.148437v44.183594c0 8.285156-6.71875 15-15 15-8.285156 0-15-6.714844-15-15v-60.25c0-11.660156-9.488281-21.148438-21.152343-21.148438-11.660157 0-21.148438 9.488282-21.148438 21.148438v60.25c0 8.285156-6.714844 15-15 15s-15-6.714844-15-15v-204.851562c0-11.660157-9.488281-21.148438-21.148438-21.148438-11.683593 0-21.148437 9.511719-21.148437 21.148438v291.722656c0 42.765625-52.542969 63.441406-81.671875 32.074218l-37.332031-40.207031c-14.609375-15.71875-41.667969-5.160156-41.667969 16.9375zm0 0"
          fill="#EC755B"/>
</svg>