<?xml version="1.0" encoding="utf-8"?>
<!-- Generator: Adobe Illustrator 16.0.0, SVG Export Plug-In . SVG Version: 6.00 Build 0)  -->
<!DOCTYPE svg PUBLIC "-//W3C//DTD SVG 1.1//EN" "http://www.w3.org/Graphics/SVG/1.1/DTD/svg11.dtd">
<svg version="1.1" id="_1" xmlns="http://www.w3.org/2000/svg" xmlns:xlink="http://www.w3.org/1999/xlink" x="0px" y="0px"
	 width="426px" height="97.5px" viewBox="0 0 426 97.5" style="enable-background:new 0 0 426 97.5;" xml:space="preserve">
<style type="text/css">
<![CDATA[
	.st0{fill:#B8B9BA;}
	.st1{fill:#373636;}
]]>
</style>
<g>
	<g>
		<g>
			<path d="M143.8,16.6C142,7.9,140.2,5,130.2,5c-4.2,0-7.7,1.2-10,3.2c-2,1.7-3,3.8-3,6.4c0,2.4,1.3,5.2,2.9,6.8
				c2.2,2.1,5.4,4,10.7,6.7c6.6,3.4,11.6,5.3,15.2,9.5c1.8,2,3.5,5.8,3.5,10c0,4.4-1.5,8.4-4.7,11.2c-3.5,3.2-9.1,5.3-16.6,5.3
				c-4.9,0-10.9-1.1-15.8-2.9c-0.8-5.2-1.7-8.8-2.8-12.5l3-0.8c2.7,10.4,7.4,12.9,16.4,12.9c3.9,0,7.5-1.1,10.1-3.1
				c2.6-2,4.3-5,4.3-8.8c0-3.4-0.9-5.4-2.7-7.5c-2.7-3.2-7.3-5.2-12.2-7.7c-5.2-2.6-12.2-6.4-14.7-9.9c-1.5-2.2-2.5-5-2.5-8.1
				c0-3.6,1.5-7.3,5.1-10c3.1-2.4,7.7-4,14.3-4c5.4,0,9.8,0.7,14.1,2.4c0.5,3.5,1.3,8,2,11.8L143.8,16.6z"/>
			<path d="M162.4,43.7c0-6.5,1.2-10.7,3.5-13.7c2-2.4,4.8-3.5,8.2-3.5c3.5,0,6.4,1.2,8.4,3.5c2.3,3,3.5,7.2,3.5,13.7
				c0,6.8-1.4,11.1-3.6,13.9c-1.9,2.2-4.7,3.6-8.2,3.6c-3.5,0-6.3-1.4-8.2-3.6C163.9,54.9,162.4,50.6,162.4,43.7z M156.4,43.6
				c0,7.7,2,12.7,5.3,15.9c3.4,3,7.4,4.2,12.5,4.2c5.3,0,9.5-1.4,12.8-4.4c3.2-3.1,5.2-8.1,5.2-15.7c0-6.7-1.8-11.8-5.2-15.1
				c-3.3-3.1-7.2-4.6-12.8-4.6c-5.4,0-9.3,1.5-12.6,4.6C158.2,31.7,156.4,37,156.4,43.6z"/>
			<path d="M203.5,27.5h-6.3v-2.7h6.3v-5.3c0-5.2,1.3-9,4.1-11.9c2-1.9,4.9-3.3,8.6-3.3c3.5,0,5.5,0.9,7.2,2
				c2.4,1.6,3.6,3.7,3.6,5.2c0,1.7-0.9,2.6-2.4,2.6c-2,0-2.8-1.8-3.7-3.6c-0.9-1.9-2-3.6-4.6-3.6c-1.7,0-3,0.6-4.2,1.9
				c-1.7,2-2.7,5.1-2.7,11.1v5H220v2.7h-10.7v27.6c0,5.1,0.3,5.6,6.7,5.6v2.1h-18.8v-2.1c5.9,0,6.3-0.6,6.3-5.8V27.5z"/>
			<path d="M223.7,25.6c5.3-0.5,9-2.5,10-11.4h2.1v10.6h9v2.7h-9v27.3c0,4,1.2,6,4.1,6c2,0,3.6-0.7,5.2-2l1.3,1.9
				c-2.2,1.9-4.8,3-8.3,3c-4.3,0-8.3-2-8.3-8.6V27.5h-6.3V25.6z"/>
			<path d="M264.3,9.1c0-2.3,0.3-3,2.5-3h8c5.9,0,9.7,1.3,12.1,3.3c1.9,1.5,3.3,4.8,3.3,7.7c0,4.1-1.4,7-3.9,9
				c-3,2.5-7.8,3.6-13.6,3.6h-8.4V9.1z M258.1,53.9c0,6-0.5,6.4-6.8,6.4v2.5h27.5c8.8,0,13.8-2,17.1-5.2c3.4-3.2,4.7-7.4,4.7-11.6
				c0-4.7-2.4-8-5.4-10.4c-3.6-2.8-8.5-4.2-14-4.4V31c5.3-0.8,8.9-2.4,11.4-4.7c3.1-2.8,4.2-6.5,4.2-9.7c0-4.3-2.2-7.7-5.4-9.9
				c-4.6-3-9.6-3.7-17.4-3.7h-22.7v2.4c6.3,0,6.8,0.4,6.8,6.5V53.9z M264.3,33h10.5c6.9,0,11.6,1.2,14.5,3.5c3,2.3,4.6,5.6,4.6,9.3
				c0,4.4-1.3,7.5-3.3,9.6c-2.9,3-6.7,4.2-12.7,4.2h-10.5c-2.6,0-3.1-0.6-3.1-4.2V33z"/>
			<path d="M328.6,56.1c-2.1,2.1-5,4.4-9.1,4.4c-2.5,0-4.3-0.8-5.6-2c-1.3-1.3-1.9-3.1-1.9-5.3c0-3.9,2.4-6.1,5.7-7.9
				c3.1-1.9,7.3-3.1,10.9-4.1V56.1z M334.5,35.6c0-3.7-0.6-6-2.8-8.4c-2.1-2.4-5.1-3.3-10.1-3.3c-4.5,0-7.4,1.1-9.6,2.4
				c-2.7,1.6-4.4,3.9-4.4,5.9c0,1.3,0.7,2.4,2.4,2.4c1.8,0,2.5-0.8,2.9-2c0.8-1.8,1.5-3.3,2.6-4.1c1.5-1.2,3.2-1.9,5.7-1.9
				c2.8,0,4.8,0.8,6.1,2.5c1.1,1.4,1.4,4,1.4,5.9v3.6l-5,1.2c-5.4,1.2-9.6,2.9-12.5,4.8c-3.7,2.4-5.2,5.5-5.2,9.4
				c0,3.2,1.3,5.7,3.4,7.3c2.2,1.8,5.1,2.5,7.8,2.5c5.6,0,8.9-1.9,11.8-4.7h0.3c0.8,2.8,2.5,4.3,5.5,4.3c2.2,0,3.7-0.5,5.1-1.2
				l-0.5-1.9c-0.7,0.4-1.5,0.6-2.3,0.6c-1.7,0-2.5-1.7-2.5-5.5V35.6z"/>
			<path d="M377.4,55.3c0,4.7,0.3,5.4,4.1,5.4v2.1h-14.3v-2.1c4.1,0,4.3-0.5,4.3-5.6V36.3c0-3.3-0.4-6-2-7.7
				c-1.1-1.1-2.6-1.7-4.9-1.7c-3.6,0-7.4,3.2-10.7,7.9v20.3c0,5.1,0.1,5.6,4,5.6v2.1h-14.8v-2.1c4.6,0,4.9-0.5,4.9-5.6V34.6
				c0-4.9-0.4-5.5-4.9-5.4v-1.9c3.7-0.6,6.6-1.4,9.4-3.5l0.8,0.5l0.3,6.5h0.2c3.4-4.3,7.7-7,12.3-7c3.6,0,6.2,0.9,8.1,2.7
				c1.9,1.8,3,4.9,3,9.4V55.3z"/>
			<path d="M397.2,42l12.1-11.7c2.3-2.1,2.9-3.4-1.2-3.4v-2.1h12.5v2.1c-2.4,0.1-3.8,0.7-5.7,2.5l-8.9,8.4l12.9,19.6
				c1.9,3,3.7,3.3,6.3,3.2v2.1h-9.6l-13.8-21.3l-4.7,4.6v8.9c0,4.9,0.2,5.6,4.8,5.6v2.1h-15.7v-2.1c4.9,0,5.1-0.7,5.1-5.6v-40
				c0-4.9-0.5-5.5-5.1-5.5V7.7c4.1-0.6,7-1.5,10.1-3.5l0.8,0.5V42H397.2z"/>
		</g>
		<g>
			<g>
				<rect y="1.7" class="st0" width="84.4" height="20.8"/>
				<rect y="43.2" class="st0" width="84.4" height="20.8"/>
			</g>
		</g>
	</g>
	<g>
		<path class="st1" d="M335.9,80.3c4.5,0,7.6,3.3,7.6,7.8c0,4.3-3.1,7.8-7.6,7.8c-4.5,0-7.6-3.5-7.6-7.8
			C328.3,83.6,331.3,80.3,335.9,80.3z M335.9,93.7c3.2,0,4.7-2.9,4.7-5.6c0-2.8-1.7-5.6-4.7-5.6c-3,0-4.7,2.8-4.7,5.6
			C331.2,90.8,332.7,93.7,335.9,93.7z"/>
		<path class="st1" d="M346.9,74.8h2.8v7.9h0.1c0.8-1.4,2.3-2.4,5-2.4c4.3,0,6.4,3.5,6.4,7.6c0,4.1-1.9,8.1-6.4,8.1
			c-2.7,0-4.4-1.3-5.1-2.5h-0.1v2.1h-2.6V74.8z M354.1,82.5c-3,0-4.4,2.8-4.4,5.6c0,2.5,1.3,5.6,4.4,5.6c3,0,4.2-3.3,4.1-5.7
			C358.2,85.4,357,82.5,354.1,82.5z"/>
		<path class="st1" d="M371.8,80.3c4.5,0,7.6,3.3,7.6,7.8c0,4.3-3.1,7.8-7.6,7.8c-4.5,0-7.6-3.5-7.6-7.8
			C364.1,83.6,367.2,80.3,371.8,80.3z M371.8,93.7c3.2,0,4.7-2.9,4.7-5.6c0-2.8-1.7-5.6-4.7-5.6c-3,0-4.7,2.8-4.7,5.6
			C367.1,90.8,368.5,93.7,371.8,93.7z"/>
		<path class="st1" d="M390.8,82.9h-4v8.2c0,1.7,1.1,2.7,2.3,2.7c0.9,0,1.5-0.3,1.9-0.5v2.3c-0.6,0.2-1.5,0.4-2.3,0.4
			c-2.8,0-4.6-1.3-4.6-4.3v-8.7h-3.4v-2.2h3.4v-3.5l2.8-0.9v4.3h4V82.9z"/>
		<path class="st1" d="M397.9,77.9h-3.1v-3.1h3.1V77.9z M395,80.7h2.8v14.9H395V80.7z"/>
		<path class="st1" d="M412.1,83.2c-1.1-0.4-2.1-0.6-3-0.6c-3.1,0-4.8,2.8-4.8,5.6c0,2.7,1.4,5.6,5,5.6c0.9,0,2.1-0.3,3-0.9l0.2,2.5
			c-1.1,0.5-2.5,0.6-3.5,0.6c-4.5,0-7.6-3.5-7.6-7.8c0-4.5,3-7.8,7.6-7.8c1.1,0,2.6,0.3,3.3,0.6L412.1,83.2z"/>
		<path class="st1" d="M312,74.8h5.1c4.1,0,8.1,0.7,8.1,5.6c0,2.5-1.9,4.3-4.3,4.7v0.1c0.9,0.4,1.4,0.8,2,2.1l3.9,8.3h-3.4l-3.2-7.2
			c-0.9-2-1.9-2-3.5-2H315v9.3h-3V74.8z M315,83.7h2.5c2.8,0,4.5-1.3,4.5-3.3c0-1.9-1.4-3.1-4.2-3.1H315V83.7z"/>
		<path class="st1" d="M415.6,92.7c1.2,0.7,2.8,1.1,3.7,1.1c1.3,0,3-0.5,3-2.1c0-2.7-6.9-2.5-6.9-6.7c0-3.1,2.5-4.6,5.6-4.6
			c1.4,0,2.5,0.3,3.7,0.6l-0.3,2.4c-0.7-0.4-2.5-0.8-3.2-0.8c-1.5,0-2.9,0.6-2.9,1.8c0,3,6.9,2.2,6.9,6.9c0,3.2-2.5,4.7-5.4,4.7
			c-1.5,0-3-0.1-4.4-0.8L415.6,92.7z"/>
	</g>
</g>
</svg>
