<?xml version="1.0" encoding="utf-8"?>
<!-- Generator: Adobe Illustrator 24.2.0, SVG Export Plug-In . SVG Version: 6.00 Build 0)  -->
<svg version="1.1" id="Layer_1" xmlns="http://www.w3.org/2000/svg" xmlns:xlink="http://www.w3.org/1999/xlink" x="0px" y="0px"
	 viewBox="0 0 433 96.4" style="enable-background:new 0 0 433 96.4;" xml:space="preserve">
<style type="text/css">
	.st0{fill-rule:evenodd;clip-rule:evenodd;fill:#EA0016;}
	.st1{fill:#606061;}
</style>
<g id="brand-french-2">
	<g id="logotype-23">
		<path id="logotype-b-23" class="st0" d="M185.2,46.7c5.4-2.1,8.9-7.3,8.8-13c0-11.7-8.3-17.5-19.7-17.5h-29.9v63.6h32.5
			c10,0,19.8-7,19.8-17.7C196.7,49.4,185.2,46.8,185.2,46.7z M160,29.4h11.6c3.1-0.2,5.8,2.2,6,5.3c0,0.2,0,0.5,0,0.7
			c-0.1,3.3-2.8,5.9-6,5.8c-0.1,0-0.2,0-0.3,0h-11.4L160,29.4z M171.7,66.5h-11.6V54h11.3c5.7,0,8.4,2.5,8.4,6.2
			C179.8,64.8,176.4,66.5,171.7,66.5z"/>
		<path id="logotype-o-23" class="st0" d="M231.1,14.6c-18.4,0-29.2,14.7-29.2,33.3c0,18.7,10.8,33.3,29.2,33.3
			c18.5,0,29.2-14.6,29.2-33.3C260.3,29.3,249.6,14.6,231.1,14.6z M231.1,66c-9,0-13.5-8.1-13.5-18.1s4.5-18,13.5-18
			s13.6,8.1,13.6,18C244.7,58,240.1,66,231.1,66z"/>
		<path id="logotype-s-23" class="st0" d="M294.2,41.2l-2.2-0.5c-5.4-1.1-9.7-2.5-9.7-6.4c0-4.2,4.1-5.9,7.7-5.9
			c5,0.1,9.7,2.2,13,5.9l9.9-9.8c-4.5-5.1-11.8-10-23.2-10c-13.4,0-23.6,7.5-23.6,20c0,11.4,8.2,17,18.2,19.1l2.2,0.5
			c8.3,1.7,11.4,3,11.4,7c0,3.8-3.4,6.3-8.6,6.3c-6.2,0-11.8-2.7-16.1-8.2l-10.1,10c5.6,6.7,12.7,11.9,26.4,11.9
			c11.9,0,24.6-6.8,24.6-20.7C314.3,45.9,303.3,43.1,294.2,41.2z"/>
		<path id="logotype-c-23" class="st0" d="M349.7,66c-7,0-14.3-5.8-14.3-18.5c0-11.3,6.8-17.6,13.9-17.6c5.6,0,8.9,2.6,11.5,7.1
			l12.8-8.5c-6.4-9.7-14-13.8-24.5-13.8c-19.2,0-29.6,14.9-29.6,32.9c0,18.9,11.5,33.7,29.4,33.7c12.6,0,18.6-4.4,25.1-13.8
			l-12.9-8.7C358.5,63,355.7,66,349.7,66z"/>
		<polygon id="logotype-h-23" class="st0" points="416.3,16.2 416.3,39.6 397,39.6 397,16.2 380.3,16.2 380.3,79.8 397,79.8 
			397,54.7 416.3,54.7 416.3,79.8 433,79.8 433,16.2 		"/>
	</g>
	<g id="symbol-23">
		<path class="st1" d="M48.2,0C21.6,0,0,21.6,0,48.2s21.6,48.2,48.2,48.2s48.2-21.6,48.2-48.2C96.4,21.6,74.8,0,48.2,0z M48.2,91.9
			c-24.1,0-43.7-19.6-43.7-43.7S24.1,4.5,48.2,4.5s43.7,19.6,43.7,43.7C91.9,72.3,72.3,91.9,48.2,91.9L48.2,91.9z"/>
		<path class="st1" d="M68.1,18.1h-3.3v16.5H31.7V18.1h-3.4c-16.6,11-21.2,33.3-10.2,50c2.7,4.1,6.2,7.6,10.2,10.2h3.4V61.8h33.1
			v16.5h3.3c16.6-11,21.2-33.3,10.2-50C75.7,24.3,72.2,20.8,68.1,18.1z M27.1,71.8c-13-11.6-14.2-31.5-2.6-44.6
			c0.8-0.9,1.7-1.8,2.6-2.6V71.8z M64.8,57.2H31.7V39.1h33.1V57.2z M69.3,71.7v-10l0,0V34.6l0,0v-10c13,11.7,14.1,31.7,2.4,44.7
			C70.9,70.1,70.1,70.9,69.3,71.7z"/>
	</g>
</g>
</svg>
